<svg width="18" height="18" viewBox="0 0 18 18" fill="none" xmlns="http://www.w3.org/2000/svg">
<path fill-rule="evenodd" clip-rule="evenodd" d="M9.00098 0.900123C4.52747 0.900123 0.900977 4.52662 0.900977 9.00012C0.900977 13.4736 4.52747 17.1001 9.00098 17.1001C13.4745 17.1001 17.101 13.4736 17.101 9.00012C17.101 4.52662 13.4745 0.900123 9.00098 0.900123ZM9.00098 0.000122547C4.03041 0.000122547 0.000977039 4.02956 0.000977039 9.00012C0.000977039 13.9707 4.03041 18.0001 9.00098 18.0001C13.9715 18.0001 18.001 13.9707 18.001 9.00012C18.001 4.02956 13.9715 0.000122547 9.00098 0.000122547Z" fill="#DA6901"/>
<path d="M9.28798 7.26378H8.71693C8.52253 7.26378 8.37673 7.40958 8.36458 7.60398L8.23093 10.3985V13.1808C8.23093 13.4117 8.42533 13.6061 8.65618 13.6061H9.34873C9.57958 13.6061 9.78613 13.4117 9.78613 13.1808V10.3985L9.64033 7.60398C9.62818 7.40958 9.48238 7.26378 9.28798 7.26378ZM8.64403 5.95158H9.36088C9.60388 5.95158 9.78613 5.76933 9.78613 5.52633V4.71228C9.78613 4.46928 9.60388 4.27488 9.36088 4.27488H8.64403C8.40103 4.27488 8.21878 4.46928 8.21878 4.71228V5.52633C8.21878 5.76933 8.40103 5.95158 8.64403 5.95158Z" fill="#DA6901"/>
</svg>
