<svg width="18" height="18" viewBox="0 0 18 18" fill="none" xmlns="http://www.w3.org/2000/svg">
<path fill-rule="evenodd" clip-rule="evenodd" d="M9 17.1C13.4735 17.1 17.1 13.4735 17.1 9C17.1 4.52649 13.4735 0.9 9 0.9C4.52649 0.9 0.9 4.52649 0.9 9C0.9 13.4735 4.52649 17.1 9 17.1ZM9 18C13.9706 18 18 13.9706 18 9C18 4.02944 13.9706 0 9 0C4.02944 0 0 4.02944 0 9C0 13.9706 4.02944 18 9 18Z" fill="white"/>
<path d="M8.71299 10.7363H9.28404C9.47844 10.7363 9.62424 10.5905 9.63639 10.3961L9.77004 7.60164V4.81929C9.77004 4.58844 9.57564 4.39404 9.34479 4.39404H8.65224C8.42139 4.39404 8.21484 4.58844 8.21484 4.81929V7.60164L8.36064 10.3961C8.37279 10.5905 8.51859 10.7363 8.71299 10.7363ZM9.35694 12.0485H8.64009C8.39709 12.0485 8.21484 12.2308 8.21484 12.4738V13.2878C8.21484 13.5308 8.39709 13.7252 8.64009 13.7252H9.35694C9.59994 13.7252 9.78219 13.5308 9.78219 13.2878V12.4738C9.78219 12.2308 9.59994 12.0485 9.35694 12.0485Z" fill="white"/>
</svg>
