<svg width="18" height="16" viewBox="0 0 18 16" fill="none" xmlns="http://www.w3.org/2000/svg">
<mask id="mask0" mask-type="alpha" maskUnits="userSpaceOnUse" x="0" y="0" width="18" height="11">
<path d="M7.3125 11H0V0H18V11H10.6875V3.66667H7.3125V11Z" fill="#C4C4C4"/>
</mask>
<g mask="url(#mask0)">
<path fill-rule="evenodd" clip-rule="evenodd" d="M16 2H2V9H16V2ZM2 1C1.44772 1 1 1.44772 1 2V9C1 9.55229 1.44772 10 2 10H16C16.5523 10 17 9.55229 17 9V2C17 1.44772 16.5523 1 16 1H2Z" fill="#584B5A"/>
</g>
<path fill-rule="evenodd" clip-rule="evenodd" d="M9 4.5C9.27614 4.5 9.5 4.72386 9.5 5V15C9.5 15.2761 9.27614 15.5 9 15.5C8.72386 15.5 8.5 15.2761 8.5 15V5C8.5 4.72386 8.72386 4.5 9 4.5Z" fill="#00E6CC"/>
<path fill-rule="evenodd" clip-rule="evenodd" d="M5.64645 11.6464C5.84171 11.4512 6.15829 11.4512 6.35355 11.6464L9 14.2929L11.6464 11.6464C11.8417 11.4512 12.1583 11.4512 12.3536 11.6464C12.5488 11.8417 12.5488 12.1583 12.3536 12.3536L9.35355 15.3536C9.15829 15.5488 8.84171 15.5488 8.64645 15.3536L5.64645 12.3536C5.45118 12.1583 5.45118 11.8417 5.64645 11.6464Z" fill="#00E6CC"/>
</svg>
