<svg width="18" height="15" viewBox="0 0 18 15" fill="none" xmlns="http://www.w3.org/2000/svg">
<mask id="mask0" mask-type="alpha" maskUnits="userSpaceOnUse" x="0" y="0" width="18" height="11">
<path d="M7.4375 11H0V0H18V11H10.625V3.45411H7.4375V11Z" fill="#C4C4C4"/>
</mask>
<g mask="url(#mask0)">
<path fill-rule="evenodd" clip-rule="evenodd" d="M16 2H2V9H16V2ZM2 1C1.44772 1 1 1.44772 1 2V9C1 9.55229 1.44772 10 2 10H16C16.5523 10 17 9.55229 17 9V2C17 1.44772 16.5523 1 16 1H2Z" fill="#584B5A"/>
</g>
<path fill-rule="evenodd" clip-rule="evenodd" d="M9 14.5C8.72386 14.5 8.5 14.2761 8.5 14V4C8.5 3.72386 8.72386 3.5 9 3.5C9.27614 3.5 9.5 3.72386 9.5 4V14C9.5 14.2761 9.27614 14.5 9 14.5Z" fill="#00E6CC"/>
<path fill-rule="evenodd" clip-rule="evenodd" d="M12.3536 7.35355C12.1583 7.54882 11.8417 7.54882 11.6464 7.35355L9 4.70711L6.35355 7.35355C6.15829 7.54882 5.84171 7.54882 5.64645 7.35355C5.45118 7.15829 5.45118 6.84171 5.64645 6.64645L8.64645 3.64645C8.84171 3.45118 9.15829 3.45118 9.35355 3.64645L12.3536 6.64645C12.5488 6.84171 12.5488 7.15829 12.3536 7.35355Z" fill="#00E6CC"/>
</svg>
